<?xml version="1.0" standalone="no"?><!DOCTYPE svg PUBLIC "-//W3C//DTD SVG 1.1//EN" "http://www.w3.org/Graphics/SVG/1.1/DTD/svg11.dtd"><svg t="1762402657329" class="icon" viewBox="0 0 1024 1024" version="1.1" xmlns="http://www.w3.org/2000/svg" p-id="2776" xmlns:xlink="http://www.w3.org/1999/xlink" width="200" height="200"><path d="M1009 569.78a15 15 0 0 0 15-15v-36.72c0-52.834-42.984-95.82-95.82-95.82h-11.114c23.472-21.244 38.244-51.932 38.244-86.008 0-63.972-52.044-116.016-116.016-116.016s-116.016 52.044-116.016 116.016c0 34.076 14.772 64.764 38.244 86.008h-11.12a95.814 95.814 0 0 0-84.712 50.968 154.282 154.282 0 0 0-6.108-1.776l-80.05-21.44v-42.618c37.904-22.624 63.564-63.668 64.578-110.69h17.398c26.096 0 47.326-21.23 47.326-47.326 0-22.322-15.54-41.072-36.368-46.03V162.484C672.462 72.89 599.574 0 509.98 0s-162.484 72.89-162.484 162.484v42c-18.764 6.288-32.326 24.022-32.326 44.874 0 26.094 21.23 47.326 47.326 47.326h17.398c1.014 47.02 26.672 88.066 64.578 110.69v42.618l-80.054 21.44a157.552 157.552 0 0 0-6.104 1.776 95.818 95.818 0 0 0-84.712-50.968h-11.12c23.472-21.244 38.244-51.932 38.244-86.008 0-63.972-52.044-116.016-116.016-116.016s-116.016 52.044-116.016 116.016c0 34.076 14.772 64.764 38.244 86.008H95.82C42.984 422.24 0 465.224 0 518.06v36.72c0 8.284 6.714 15 15 15s15-6.716 15-15v-36.72c0-36.292 29.528-65.82 65.82-65.82h177.78c23.782 0 45.27 12.764 56.89 32.746-49.594 26.888-81.99 79.302-81.99 137.534v80.56H30v-78.3c0-8.284-6.714-15-15-15s-15 6.716-15 15v93.3a15 15 0 0 0 15 15h337.506c-12.258 19.128-21.23 40.656-25.946 63.896a15.002 15.002 0 0 0 29.402 5.968c14.98-73.822 80.604-127.404 156.04-127.404 87.794 0 159.22 71.434 159.22 159.24 0 87.794-71.426 159.22-159.22 159.22-75.438 0-141.062-53.572-156.04-127.384a15 15 0 0 0-29.402 5.968C344.364 960.32 422.352 1024 512 1024c104.336 0 189.22-84.884 189.22-189.22 0-37.406-10.91-72.31-29.712-101.7H1009a15 15 0 0 0 15-15v-93.3c0-8.284-6.714-15-15-15s-15 6.716-15 15v78.3H775.5v-80.56c0-58.23-32.394-110.644-81.99-137.534 11.62-19.982 33.108-32.746 56.89-32.746h177.78c36.292 0 65.82 29.526 65.82 65.82v36.72a15 15 0 0 0 15 15zM98.692 336.232c0-47.428 38.586-86.016 86.016-86.016s86.016 38.586 86.016 86.016c0 47.326-38.42 85.842-85.708 86.008H184.4c-47.288-0.168-85.708-38.682-85.708-86.008z m381.472 184.794l-14.52 12.1c-6.756 5.63-15.444 7.358-23.846 4.732-8.394-2.624-14.556-8.992-16.904-17.47l-8.792-31.742 31.062-8.32c5.11 17.566 17.168 32.198 33 40.7z m96.672-40.698l31.062 8.318-8.792 31.742c-2.346 8.478-8.508 14.844-16.902 17.468-8.402 2.624-17.09 0.898-23.846-4.732l-14.52-12.1c15.83-8.5 27.888-23.132 32.998-40.696z m101.994-230.97c0 9.552-7.774 17.326-17.326 17.326h-17.324v-34.65h17.326c9.55-0.002 17.324 7.77 17.324 17.324zM377.496 162.484C377.496 89.432 436.928 30 509.98 30c73.05 0 132.482 59.432 132.482 132.484v39.548h-49.65c-14.01 0-25.406-11.398-25.406-25.406 0-8.284-6.714-15-15-15s-15 6.716-15 15c0 14.008-11.396 25.406-25.406 25.406h-134.504z m-32.326 86.874c0-9.552 7.774-17.326 17.326-17.326h17.324v34.65h-17.324c-9.552 0-17.326-7.772-17.326-17.324z m64.65 44.446v-61.772H512c15.918 0 30.292-6.748 40.406-17.534 10.116 10.786 24.488 17.534 40.406 17.534h21.368v61.772c0 56.342-45.838 102.178-102.18 102.178s-102.18-45.836-102.18-102.178z m102.18 132.18c13.036 0 25.624-1.928 37.53-5.46v40.968c0 20.694-16.836 37.528-37.53 37.528s-37.53-16.834-37.53-37.528v-40.968a131.736 131.736 0 0 0 37.53 5.46z m233.5 196.536v80.56h-97.762c-34.412-35.464-82.542-57.54-135.738-57.54-52.472 0-100.93 21.844-135.684 57.54H278.5v-80.56c0-57.104 38.526-107.318 93.682-122.11l14.94-4.002 8.858 31.986a55.192 55.192 0 0 0 36.866 38.096 55.648 55.648 0 0 0 16.61 2.544c12.76 0 25.274-4.43 35.394-12.864L512 533.546l27.15 22.626c10.124 8.434 22.632 12.864 35.394 12.864 5.548 0 11.142-0.836 16.61-2.544a55.194 55.194 0 0 0 36.864-38.096l8.86-31.988 14.938 4c55.158 14.794 93.684 65.008 93.684 122.112z m7.778-286.288c0-47.428 38.586-86.016 86.016-86.016s86.016 38.586 86.016 86.016c0 47.326-38.42 85.842-85.708 86.008h-0.616c-47.288-0.168-85.708-38.682-85.708-86.008z" p-id="2777"></path><path d="M491.048 923.654c13.432 0 26.058-5.23 35.558-14.728l77.19-77.19c19.606-19.606 19.606-51.51-0.002-71.118-19.608-19.606-51.51-19.602-71.118 0l-41.628 41.632c-19.63-19.332-51.328-19.242-70.846 0.272-19.604 19.606-19.604 51.508 0 71.116l35.29 35.288c9.498 9.498 22.126 14.728 35.556 14.728z m-49.632-99.916c3.958-3.956 9.152-5.932 14.348-5.932s10.39 1.978 14.344 5.93l10.334 10.336a14.994 14.994 0 0 0 21.216 0l52.234-52.238c7.91-7.908 20.782-7.914 28.692 0 7.91 7.91 7.91 20.78 0 28.69l-77.188 77.188c-3.832 3.832-8.928 5.942-14.346 5.942s-10.514-2.11-14.344-5.94l-35.288-35.286c-7.91-7.91-7.91-20.782-0.002-28.69z" p-id="2778"></path></svg>