<?xml version="1.0" standalone="no"?><!DOCTYPE svg PUBLIC "-//W3C//DTD SVG 1.1//EN" "http://www.w3.org/Graphics/SVG/1.1/DTD/svg11.dtd"><svg t="1762402703951" class="icon" viewBox="0 0 1024 1024" version="1.1" xmlns="http://www.w3.org/2000/svg" p-id="3837" xmlns:xlink="http://www.w3.org/1999/xlink" width="200" height="200"><path d="M0.192 470.688h159.872v42.56H0.192v-42.56z m863.04 0h158.176v42.56h-158.176v-42.56zM0.032 2.592v382.976h42.56V45.152h936.416v338.912h42.56V2.624z m978.976 978.688H42.592V606.016h-42.56v417.824h1021.536V606.016h-42.56zM611.488 365.568c-18.624 34.272-39.648 71.36-63.136 105.984H319.104v70.4c0 65.696-4 91.136-12 120-8.352 29.568-29.376 55.456-49.92 77.376 9.376 10.336 23.392 24.608 34.784 35.328 27.136-29.568 45.568-61.216 55.328-94.976 9.056-29.152 14.08-55.456 14.08-137.76v-28.544h373.76v-41.856H593.76c20.192-25.92 44.704-50.848 63.136-76.768l-45.408-29.216z m-356.064-1.376h153.184l-37.952 22.624c19.2 22.24 45.184 55.84 60.352 78.976l41.376-27.648c-16.352-23.84-38.496-55.456-60.288-73.952h354.08v-42.368h-220.16a835.296 835.296 0 0 0-35.744-63.136l-38.624 19.296c9.216 14.944 17.664 29.568 25.312 43.84H255.424v42.368z" p-id="3838"></path></svg>