<?xml version="1.0" standalone="no"?><!DOCTYPE svg PUBLIC "-//W3C//DTD SVG 1.1//EN" "http://www.w3.org/Graphics/SVG/1.1/DTD/svg11.dtd"><svg t="1762088087965" class="icon" viewBox="0 0 1124 1024" version="1.1" xmlns="http://www.w3.org/2000/svg" p-id="12386" xmlns:xlink="http://www.w3.org/1999/xlink" width="219.53125" height="200"><path d="M1086.757302 345.637416a37.853073 37.853073 0 0 1-17.373103-4.210124L562.419317 80.843437 55.454436 341.427292a38.044558 38.044558 0 0 1-34.79693-67.666332L545.020853 4.21157a38.04329 38.04329 0 0 1 34.796929 0l524.363346 269.54939a38.04329 38.04329 0 0 1-17.423826 71.876456zM836.96506 453.211159L1042.753896 636.592497 836.96506 819.973836l-1.26811-111.099088h-323.367964V564.310246h323.367964l1.26811-111.099087m0-76.08658a76.08658 76.08658 0 0 0-76.08658 75.211584l-0.405795 35.887504H512.328986a76.08658 76.08658 0 0 0-76.08658 76.086579v144.564502a76.08658 76.08658 0 0 0 76.08658 76.08658h248.143699l0.405795 35.887504a76.08658 76.08658 0 0 0 126.709518 55.936317l205.788836-183.444744a76.08658 76.08658 0 0 0 0-113.597264L887.587998 396.399846a76.08658 76.08658 0 0 0-50.635619-19.275267z" p-id="12387"></path><path d="M942.852217 526.964417a38.04329 38.04329 0 0 1-38.04329-38.04329V384.872729a38.04329 38.04329 0 0 1 76.08658 0v104.048398a38.04329 38.04329 0 0 1-38.04329 38.04329zM942.852217 1024h-760.865799a38.04329 38.04329 0 0 1-38.04329-38.04329v-601.083981a38.04329 38.04329 0 0 1 76.08658 0v563.040691h684.779219V773.662471a38.04329 38.04329 0 0 1 76.08658 0V985.95671a38.04329 38.04329 0 0 1-38.04329 38.04329z" p-id="12388"></path></svg>