<?xml version="1.0" standalone="no"?><!DOCTYPE svg PUBLIC "-//W3C//DTD SVG 1.1//EN" "http://www.w3.org/Graphics/SVG/1.1/DTD/svg11.dtd"><svg t="1762088017349" class="icon" viewBox="0 0 1024 1024" version="1.1" xmlns="http://www.w3.org/2000/svg" p-id="9291" xmlns:xlink="http://www.w3.org/1999/xlink" width="200" height="200"><path d="M32 915.2V614.4c0-19.2 19.2-38.4 38.4-38.4s38.4 19.2 38.4 38.4v300.8c0 19.2-19.2 38.4-38.4 38.4s-38.4-12.8-38.4-38.4z m710.4 0V563.2c0-19.2 19.2-38.4 38.4-38.4s38.4 19.2 38.4 38.4v358.4c0 19.2-19.2 38.4-38.4 38.4-25.6-6.4-38.4-19.2-38.4-44.8z m172.8 0v-115.2c0-19.2 19.2-38.4 38.4-38.4s38.4 19.2 38.4 38.4v115.2c0 19.2-19.2 38.4-38.4 38.4s-38.4-12.8-38.4-38.4z m-704 6.4V275.2c0-19.2 12.8-38.4 38.4-38.4 19.2 0 38.4 12.8 38.4 38.4v646.4c0 19.2-12.8 38.4-38.4 38.4-25.6-6.4-38.4-19.2-38.4-38.4z m352-6.4V108.8c0-19.2 19.2-38.4 38.4-38.4s38.4 12.8 38.4 38.4v812.8c0 19.2-19.2 38.4-38.4 38.4s-38.4-19.2-38.4-44.8z m-179.2 0V428.8c0-19.2 19.2-38.4 38.4-38.4s38.4 19.2 38.4 38.4v486.4c0 19.2-19.2 38.4-38.4 38.4s-38.4-12.8-38.4-38.4z" p-id="9292"></path></svg>