<?xml version="1.0" standalone="no"?><!DOCTYPE svg PUBLIC "-//W3C//DTD SVG 1.1//EN" "http://www.w3.org/Graphics/SVG/1.1/DTD/svg11.dtd"><svg t="1762088047541" class="icon" viewBox="0 0 1024 1024" version="1.1" xmlns="http://www.w3.org/2000/svg" p-id="10331" xmlns:xlink="http://www.w3.org/1999/xlink" width="200" height="200"><path d="M576 234.666667v533.333333c0 1.770667 0.213333 3.477333 0.618667 5.12A212.394667 212.394667 0 0 0 618.666667 917.333333L128 917.333333a21.333333 21.333333 0 0 1-21.333333-21.333333V256a21.333333 21.333333 0 0 1 21.333333-21.333333h448z m213.333333-128a128 128 0 0 1 127.104 143.274666c0.597333 1.92 0.896 3.946667 0.896 6.058667v362.666667a212.394667 212.394667 0 0 0-128-42.666667 212.394667 212.394667 0 0 0-128 42.666667V234.666667l0.085334-4.8A128 128 0 0 1 789.333333 106.666667z" fill="#131415" p-id="10332"></path><path d="M789.333333 661.333333a128 128 0 1 1 0 256 128 128 0 0 1 0-256z m0 85.333334a42.666667 42.666667 0 1 0 0 85.333333 42.666667 42.666667 0 0 0 0-85.333333z" fill="#131415" opacity=".6" p-id="10333"></path></svg>