<?xml version="1.0" standalone="no"?><!DOCTYPE svg PUBLIC "-//W3C//DTD SVG 1.1//EN" "http://www.w3.org/Graphics/SVG/1.1/DTD/svg11.dtd"><svg t="1762402741981" class="icon" viewBox="0 0 1024 1024" version="1.1" xmlns="http://www.w3.org/2000/svg" p-id="4861" xmlns:xlink="http://www.w3.org/1999/xlink" width="200" height="200"><path d="M256 320.8704v412.9792c0 41.3184 35.4304 75.1104 78.7456 75.1104h354.4576c43.3664 0 78.7968-33.792 78.7968-75.1104V320.8704c0-41.3184-35.4304-75.1104-78.7968-75.1104H334.7456C291.4304 245.76 256 279.552 256 320.8704z m275.712 375.4496H413.5424c-23.6544 0-39.424-15.0016-39.424-37.5296s15.7696-37.5808 39.424-37.5808h118.1696c23.6032 0 39.3728 15.0528 39.3728 37.5808s-15.7696 37.5296-39.424 37.5296z m78.7456-150.1696H413.5424c-23.6544 0-39.424-15.0528-39.424-37.5808s15.7696-37.5296 39.424-37.5296h196.9152c23.6544 0 39.424 15.0016 39.424 37.5296s-15.7696 37.5808-39.424 37.5808z" p-id="4862"></path></svg>